<svg aria-hidden="true" style="width:0;height:0;position:absolute;overflow:hidden" xmlns="http://www.w3.org/2000/svg"><defs><symbol id="icon-search" viewBox="0 0 32 32"><path d="m31.008 27.231-7.58-6.447c-.784-.705-1.622-1.029-2.299-.998a11.954 11.954 0 0 0 2.87-7.787c0-6.627-5.373-12-12-12s-12 5.373-12 12 5.373 12 12 12c2.972 0 5.691-1.081 7.787-2.87-.031.677.293 1.515.998 2.299l6.447 7.58c1.104 1.226 2.907 1.33 4.007.23s.997-2.903-.23-4.007zM12 20a8 8 0 1 1 0-16 8 8 0 0 1 0 16z"/></symbol><symbol id="icon-home" viewBox="0 0 32 32"><path d="M32 18.451 16 6.031 0 18.451v-5.064L16 .967l16 12.42zM28 18v12h-8v-8h-8v8H4V18l12-9z"/></symbol><symbol id="icon-library" viewBox="0 0 32 32"><path d="M22.667 6.333h-1.333V4.346a2.02 2.02 0 0 0-2.013-2.013h-6.64a2.02 2.02 0 0 0-2.013 2.013v1.987H9.335A2.675 2.675 0 0 0 6.668 9v.173C7.095 9.053 7.535 9 8.001 9h16c.467 0 .907.053 1.333.173V9c0-1.467-1.2-2.667-2.667-2.667zM18.573 22.573c-.427 0-.76.347-.76.76s.347.76.76.76c.413 0 .76-.347.76-.76s-.347-.76-.76-.76zM12.093 23.747c-.427 0-.76.347-.76.76s.347.76.76.76c.413 0 .76-.347.76-.76s-.333-.76-.76-.76z"/><path d="M25.333 11.173A4.879 4.879 0 0 0 24 11H8c-.467 0-.907.053-1.333.173-2.293.6-4 2.693-4 5.16v8c0 2.933 2.4 5.333 5.333 5.333h16c2.933 0 5.333-2.4 5.333-5.333v-8c0-2.467-1.707-4.56-4-5.16zm-4 6.534v5.627c0 1.52-1.24 2.76-2.76 2.76s-2.76-1.24-2.76-2.76c0-1.52 1.24-2.76 2.76-2.76.267 0 .52.053.76.12v-1.68l-4.467 1.213v4.28c0 .013 0 .027-.013.04a2.768 2.768 0 0 1-2.76 2.733c-1.52 0-2.76-1.24-2.76-2.773s1.24-2.76 2.76-2.76c.267 0 .52.053.773.12V17.4c0-1.147.72-2.08 1.813-2.373l3.533-.973c1.133-.307 1.853-.013 2.253.293s.867.907.867 2.093v1.267z"/></symbol><symbol id="icon-logout" viewBox="0 0 32 32"><path d="M15.256 1.333c3.641 0 6.611 2.919 6.611 6.512v7.025h-8.953a1.13 1.13 0 0 0-1.149 1.129 1.14 1.14 0 0 0 1.149 1.129h8.953v7.011c0 3.593-2.969 6.527-6.64 6.527H7.96c-3.656 0-6.626-2.919-6.626-6.512V7.859c0-3.608 2.984-6.527 6.641-6.527h7.282zm10.336 9.607a1.12 1.12 0 0 1 1.599-.015l4.283 4.268a1.12 1.12 0 0 1 0 1.599l-4.283 4.268c-.22.22-.513.337-.792.337-.293 0-.587-.117-.807-.337a1.133 1.133 0 0 1 0-1.599l2.347-2.332h-6.072V14.87h6.072l-2.347-2.332a1.133 1.133 0 0 1 0-1.599z"/></symbol><symbol id="icon-profile" viewBox="0 0 32 32"><path d="M16 2.667A6.339 6.339 0 0 0 9.667 9c0 3.427 2.68 6.2 6.173 6.32a1.1 1.1 0 0 1 .293 0h.094A6.318 6.318 0 0 0 22.334 9a6.339 6.339 0 0 0-6.333-6.333zM22.773 18.867c-3.72-2.48-9.787-2.48-13.533 0C7.547 20 6.613 21.534 6.613 23.174s.933 3.16 2.613 4.28c1.867 1.253 4.32 1.88 6.773 1.88s4.907-.627 6.773-1.88c1.68-1.133 2.613-2.653 2.613-4.307-.013-1.64-.933-3.16-2.613-4.28z"/></symbol><symbol id="icon-heart" viewBox="0 0 32 32"><path d="M29.193 5.265c-3.629-3.596-9.432-3.671-13.191-.288-3.76-3.383-9.561-3.308-13.192.288a9.42 9.42 0 0 0 0 13.415l11.053 10.941a3.042 3.042 0 0 0 4.278 0L29.194 18.68a9.418 9.418 0 0 0-.001-13.415zm-1.425 12.003L16.715 28.209a1.012 1.012 0 0 1-1.425 0L4.237 17.268a7.443 7.443 0 0 1 0-10.591c2.844-2.815 7.416-2.914 10.409-.222l1.356 1.22 1.355-1.22c2.994-2.692 7.566-2.594 10.41.222a7.444 7.444 0 0 1 .001 10.591zM9.253 7.501a.5.5 0 1 1 0 1h-.001a3.25 3.25 0 0 0-3.249 3.249v.001a.5.5 0 0 1-1 0 4.25 4.25 0 0 1 4.246-4.249l.004-.001z"/></symbol></defs></svg>