<svg aria-hidden="true" style="position: absolute; width: 0; height: 0; overflow: hidden;" version="1.1" xmlns="http://www.w3.org/2000/svg" xmlns:xlink="http://www.w3.org/1999/xlink">
<defs>

<symbol id="icon-search" viewBox="0 0 32 32">
<path d="M31.008 27.231l-7.58-6.447c-0.784-0.705-1.622-1.029-2.299-0.998 1.789-2.096 2.87-4.815 2.87-7.787 0-6.627-5.373-12-12-12s-12 5.373-12 12 5.373 12 12 12c2.972 0 5.691-1.081 7.787-2.87-0.031 0.677 0.293 1.515 0.998 2.299l6.447 7.58c1.104 1.226 2.907 1.33 4.007 0.23s0.997-2.903-0.23-4.007zM12 20c-4.418 0-8-3.582-8-8s3.582-8 8-8 8 3.582 8 8-3.582 8-8 8z"></path>
</symbol>

<symbol id="icon-home" viewBox="0 0 32 32">
<path d="M32 18.451l-16-12.42-16 12.42v-5.064l16-12.42 16 12.42zM28 18v12h-8v-8h-8v8h-8v-12l12-9z"></path>
</symbol>

<symbol id="icon-library" viewBox="0 0 32 32">
<path d="M22.667 6.333h-1.333v-1.987c0-1.107-0.907-2.013-2.013-2.013h-6.64c-1.107 0-2.013 0.907-2.013 2.013v1.987h-1.333c-1.467 0-2.667 1.2-2.667 2.667v0.173c0.427-0.12 0.867-0.173 1.333-0.173h16c0.467 0 0.907 0.053 1.333 0.173v-0.173c0-1.467-1.2-2.667-2.667-2.667z"></path>
<path d="M18.573 22.573c-0.427 0-0.76 0.347-0.76 0.76s0.347 0.76 0.76 0.76c0.413 0 0.76-0.347 0.76-0.76s-0.347-0.76-0.76-0.76z"></path>
<path d="M12.093 23.747c-0.427 0-0.76 0.347-0.76 0.76s0.347 0.76 0.76 0.76c0.413 0 0.76-0.347 0.76-0.76s-0.333-0.76-0.76-0.76z"></path>
<path d="M25.333 11.173c-0.427-0.12-0.867-0.173-1.333-0.173h-16c-0.467 0-0.907 0.053-1.333 0.173-2.293 0.6-4 2.693-4 5.16v8c0 2.933 2.4 5.333 5.333 5.333h16c2.933 0 5.333-2.4 5.333-5.333v-8c0-2.467-1.707-4.56-4-5.16zM21.333 17.707v5.627c0 1.52-1.24 2.76-2.76 2.76s-2.76-1.24-2.76-2.76c0-1.52 1.24-2.76 2.76-2.76 0.267 0 0.52 0.053 0.76 0.12v-1.68l-4.467 1.213v4.28c0 0.013 0 0.027-0.013 0.040-0.013 1.507-1.253 2.733-2.76 2.733-1.52 0-2.76-1.24-2.76-2.773s1.24-2.76 2.76-2.76c0.267 0 0.52 0.053 0.773 0.12v-4.467c0-1.147 0.72-2.080 1.813-2.373l3.533-0.973c1.133-0.307 1.853-0.013 2.253 0.293s0.867 0.907 0.867 2.093v1.267z"></path>
</symbol>

<symbol id="icon-logout" viewBox="0 0 32 32">
<path d="M15.256 1.333c3.641 0 6.611 2.919 6.611 6.512v7.025h-8.953c-0.642 0-1.149 0.499-1.149 1.129 0 0.616 0.507 1.129 1.149 1.129h8.953v7.011c0 3.593-2.969 6.527-6.64 6.527h-7.267c-3.656 0-6.626-2.919-6.626-6.512v-16.295c0-3.608 2.984-6.527 6.641-6.527h7.282zM25.592 10.94c0.44-0.455 1.159-0.455 1.599-0.015l4.283 4.268c0.22 0.22 0.337 0.499 0.337 0.807 0 0.293-0.117 0.587-0.337 0.792l-4.283 4.268c-0.22 0.22-0.513 0.337-0.792 0.337-0.293 0-0.587-0.117-0.807-0.337-0.44-0.44-0.44-1.159 0-1.599l2.347-2.332h-6.072v-2.259h6.072l-2.347-2.332c-0.44-0.44-0.44-1.159 0-1.599z"></path>
</symbol>

<symbol id="icon-profile" viewBox="0 0 32 32">
<path d="M16 2.667c-3.493 0-6.333 2.84-6.333 6.333 0 3.427 2.68 6.2 6.173 6.32 0.107-0.013 0.213-0.013 0.293 0 0.027 0 0.040 0 0.067 0 0.013 0 0.013 0 0.027 0 3.413-0.12 6.093-2.893 6.107-6.32 0-3.493-2.84-6.333-6.333-6.333z"></path>
<path d="M22.773 18.867c-3.72-2.48-9.787-2.48-13.533 0-1.693 1.133-2.627 2.667-2.627 4.307s0.933 3.16 2.613 4.28c1.867 1.253 4.32 1.88 6.773 1.88s4.907-0.627 6.773-1.88c1.68-1.133 2.613-2.653 2.613-4.307-0.013-1.64-0.933-3.16-2.613-4.28z"></path>
</symbol>

<symbol id="icon-heart" viewBox="0 0 32 32">
<path d="M29.193 5.265c-3.629-3.596-9.432-3.671-13.191-0.288-3.76-3.383-9.561-3.308-13.192 0.288-3.741 3.704-3.741 9.709 0 13.415 1.069 1.059 11.053 10.941 11.053 10.941 1.183 1.172 3.096 1.172 4.278 0 0 0 10.932-10.822 11.053-10.941 3.742-3.706 3.742-9.711-0.001-13.415zM27.768 17.268l-11.053 10.941c-0.393 0.391-1.034 0.391-1.425 0l-11.053-10.941c-2.95-2.92-2.95-7.671 0-10.591 2.844-2.815 7.416-2.914 10.409-0.222l1.356 1.22 1.355-1.22c2.994-2.692 7.566-2.594 10.41 0.222 2.95 2.919 2.95 7.67 0.001 10.591zM9.253 7.501c0.277 0 0.5 0.224 0.5 0.5s-0.224 0.5-0.5 0.5h-0.001c-1.794 0-3.249 1.455-3.249 3.249v0.001c0 0.276-0.224 0.5-0.5 0.5s-0.5-0.224-0.5-0.5v0c0-2.346 1.901-4.247 4.246-4.249 0.002 0 0.002-0.001 0.004-0.001z"></path>
</symbol>

</defs>
</svg>